<svg width="22" height="22" viewBox="0 0 22 22" fill="none" xmlns="http://www.w3.org/2000/svg">
<rect width="22" height="22" rx="11" fill="#5C5C5C"/>
<path d="M12.65 11.0003L15.7436 7.90668C16.0855 7.56487 16.0855 7.0107 15.7436 6.66942L15.3312 6.257C14.9893 5.91508 14.4351 5.91508 14.0938 6.257L11.0003 9.35053L7.90668 6.25636C7.56487 5.91455 7.0107 5.91455 6.66942 6.25636L6.25636 6.66878C5.91455 7.0107 5.91455 7.56487 6.25636 7.90615L9.35053 11.0003L6.257 14.0938C5.91508 14.4358 5.91508 14.9899 6.257 15.3312L6.66942 15.7436C7.01124 16.0855 7.5654 16.0855 7.90668 15.7436L11.0003 12.65L14.0938 15.7436C14.4358 16.0855 14.9899 16.0855 15.3312 15.7436L15.7436 15.3312C16.0855 14.9893 16.0855 14.4351 15.7436 14.0938L12.65 11.0003Z" fill="white"/>
</svg>
